<svg xmlns="http://www.w3.org/2000/svg" viewBox="0 0 191.08 52"><defs><style>.cls-1{fill:none;stroke:#ff2d46;stroke-miterlimit:10;stroke-width:2px;}.cls-2{fill:#ff2d46;}</style></defs><title>boton-form-limpiar</title><g id="Capa_2" data-name="Capa 2"><g id="Capa_1-2" data-name="Capa 1"><rect class="cls-1" x="1" y="1" width="189.08" height="50" rx="25"/><path class="cls-2" d="M62.69,29.43h7.56v1.5H61.09V17.73h1.6Z"/><path class="cls-2" d="M73.55,19a1.13,1.13,0,1,1,.87-.33A1.18,1.18,0,0,1,73.55,19Zm.8,1.92v10h-1.6v-10Z"/><path class="cls-2" d="M78.07,30.93v-10h1.4l.1,1.56A3.3,3.3,0,0,1,81,21.15a4.08,4.08,0,0,1,1.79-.42,4.34,4.34,0,0,1,2,.48,3.18,3.18,0,0,1,1.44,1.48,2.87,2.87,0,0,1,.9-1.11,4.11,4.11,0,0,1,1.27-.64,4.52,4.52,0,0,1,1.31-.21,4.28,4.28,0,0,1,1.83.4A3.41,3.41,0,0,1,93,22.37a3.85,3.85,0,0,1,.56,2.16v6.4h-1.6V24.69a2.5,2.5,0,0,0-.68-2,2.44,2.44,0,0,0-1.68-.6,3,3,0,0,0-1.46.38A2.8,2.8,0,0,0,87,23.63a3.74,3.74,0,0,0-.41,1.82v5.48H85V24.69a2.5,2.5,0,0,0-.68-2,2.44,2.44,0,0,0-1.68-.6,3,3,0,0,0-1.35.35,2.84,2.84,0,0,0-1.15,1.11,3.8,3.8,0,0,0-.46,2v5.34Z"/><path class="cls-2" d="M97.13,35.13V20.93h1.4l.14,2.44-.22-.28a3.31,3.31,0,0,1,.78-1.23,3.79,3.79,0,0,1,1.26-.83,4.22,4.22,0,0,1,1.6-.3,4.33,4.33,0,0,1,2.25.62A4.45,4.45,0,0,1,106,23.13a5.91,5.91,0,0,1,.62,2.8,5.81,5.81,0,0,1-.63,2.79,4.52,4.52,0,0,1-1.67,1.79,4.38,4.38,0,0,1-2.28.62,3.83,3.83,0,0,1-2.17-.61A3.48,3.48,0,0,1,98.53,29l.2-.3v6.46Zm4.74-5.4a2.79,2.79,0,0,0,2.31-1,4.3,4.3,0,0,0,.83-2.76,4.36,4.36,0,0,0-.81-2.76,2.73,2.73,0,0,0-2.27-1,3,3,0,0,0-1.68.47,3.1,3.1,0,0,0-1.12,1.32,4.65,4.65,0,0,0-.4,2,4.79,4.79,0,0,0,.39,2,3.09,3.09,0,0,0,1.1,1.33A2.93,2.93,0,0,0,101.87,29.73Z"/><path class="cls-2" d="M110.47,19a1.13,1.13,0,1,1,.87-.33A1.18,1.18,0,0,1,110.47,19Zm.8,1.92v10h-1.6v-10Z"/><path class="cls-2" d="M120.83,24.47a2.36,2.36,0,0,0-.6-1.73,2.27,2.27,0,0,0-1.7-.61,3.27,3.27,0,0,0-1.76.45A2.63,2.63,0,0,0,115.71,24l-1.3-.8a3.52,3.52,0,0,1,1.48-1.81,4.87,4.87,0,0,1,2.68-.69,5,5,0,0,1,2,.37,3.09,3.09,0,0,1,1.39,1.12,3.36,3.36,0,0,1,.51,1.93V29c0,.48.25.72.76.72a2.64,2.64,0,0,0,.74-.1l-.08,1.26a2.38,2.38,0,0,1-1,.2,2.33,2.33,0,0,1-1-.22,1.61,1.61,0,0,1-.72-.67,2.28,2.28,0,0,1-.26-1.13v-.2l.4.06a2.63,2.63,0,0,1-.82,1.27,3.7,3.7,0,0,1-1.3.72,4.74,4.74,0,0,1-1.42.23,4.43,4.43,0,0,1-1.64-.3,2.65,2.65,0,0,1-1.21-.91,2.7,2.7,0,0,1,.3-3.36,4,4,0,0,1,2.09-1l4-.78v1.32l-3.22.66a3.67,3.67,0,0,0-1.46.56,1.18,1.18,0,0,0-.48,1,1.23,1.23,0,0,0,.49,1,2.19,2.19,0,0,0,1.39.39,4,4,0,0,0,1.11-.15,2.89,2.89,0,0,0,1-.46,2.26,2.26,0,0,0,.66-.78,2.39,2.39,0,0,0,.24-1.11Z"/><path class="cls-2" d="M126.31,30.93v-10h1.3l.22,1.64a3,3,0,0,1,1.23-1.38,3.91,3.91,0,0,1,2-.46,4,4,0,0,1,.57,0,1.57,1.57,0,0,1,.53.16l-.28,1.46a3.37,3.37,0,0,0-.48-.12,4.71,4.71,0,0,0-.74,0,2.51,2.51,0,0,0-1.25.36,2.83,2.83,0,0,0-1,1.09,3.67,3.67,0,0,0-.42,1.85v5.4Z"/></g></g></svg>