<svg xmlns="http://www.w3.org/2000/svg" viewBox="0 0 189.08 50"><defs><style>.cls-1{fill:#ffbd28;}.cls-2{fill:#fff;}</style></defs><title>boton-form-enviar</title><g id="Capa_2" data-name="Capa 2"><g id="Capa_1-2" data-name="Capa 1"><rect class="cls-1" width="189.08" height="50" rx="25"/><path class="cls-2" d="M66.89,29.93V16.73h9.26v1.5H68.49v4.26h6V24h-6v4.44h8v1.5Z"/><path class="cls-2" d="M79.35,29.93v-10h1.4l.14,2.24L80.63,22a3.44,3.44,0,0,1,.86-1.29A3.31,3.31,0,0,1,82.74,20a4.8,4.8,0,0,1,1.47-.22,4.65,4.65,0,0,1,2,.41,3.22,3.22,0,0,1,1.41,1.25,4,4,0,0,1,.53,2.14v6.4h-1.6V24.09a3.05,3.05,0,0,0-.71-2.31,2.51,2.51,0,0,0-1.75-.65,3.3,3.3,0,0,0-1.44.34,2.78,2.78,0,0,0-1.19,1.1,3.9,3.9,0,0,0-.47,2v5.32Z"/><path class="cls-2" d="M98.09,19.93h1.68l-4.16,10H94l-4.16-10h1.82l3.16,8.38Z"/><path class="cls-2" d="M102.67,18a1.13,1.13,0,1,1,.87-.33A1.18,1.18,0,0,1,102.67,18Zm.8,1.92v10h-1.6v-10Z"/><path class="cls-2" d="M113,23.47a2.36,2.36,0,0,0-.6-1.73,2.27,2.27,0,0,0-1.7-.61,3.27,3.27,0,0,0-1.76.45A2.63,2.63,0,0,0,107.91,23l-1.3-.8a3.52,3.52,0,0,1,1.48-1.81,4.87,4.87,0,0,1,2.68-.69,5,5,0,0,1,2,.37,3.09,3.09,0,0,1,1.39,1.12,3.36,3.36,0,0,1,.51,1.93V28c0,.48.25.72.76.72a2.64,2.64,0,0,0,.74-.1l-.08,1.26a2.38,2.38,0,0,1-1,.2,2.33,2.33,0,0,1-1-.22,1.61,1.61,0,0,1-.72-.67,2.28,2.28,0,0,1-.26-1.13v-.2l.4.06a2.63,2.63,0,0,1-.82,1.27,3.7,3.7,0,0,1-1.3.72,4.74,4.74,0,0,1-1.42.23,4.43,4.43,0,0,1-1.64-.3,2.65,2.65,0,0,1-1.21-.91,2.7,2.7,0,0,1,.3-3.36,4,4,0,0,1,2.09-1l4-.78v1.32l-3.22.66a3.67,3.67,0,0,0-1.46.56,1.18,1.18,0,0,0-.48,1,1.23,1.23,0,0,0,.49,1,2.19,2.19,0,0,0,1.39.39,4,4,0,0,0,1.11-.15,2.89,2.89,0,0,0,.95-.46,2.26,2.26,0,0,0,.66-.78,2.39,2.39,0,0,0,.24-1.11Z"/><path class="cls-2" d="M118.51,29.93v-10h1.3l.22,1.64a3,3,0,0,1,1.23-1.38,3.91,3.91,0,0,1,2-.46,4,4,0,0,1,.57,0,1.57,1.57,0,0,1,.53.16l-.28,1.46a3.37,3.37,0,0,0-.48-.12,4.71,4.71,0,0,0-.74,0,2.51,2.51,0,0,0-1.25.36,2.83,2.83,0,0,0-1,1.09,3.67,3.67,0,0,0-.42,1.85v5.4Z"/></g></g></svg>