<svg xmlns="http://www.w3.org/2000/svg" viewBox="0 0 190.08 39.9"><defs><style>.cls-1{fill:#ffbd28;}.cls-2{fill:#fff;}</style></defs><title>boton-header</title><g id="Capa_2" data-name="Capa 2"><g id="Capa_1-2" data-name="Capa 1"><rect class="cls-1" width="190.08" height="39.9" rx="19.95"/><path class="cls-2" d="M63.91,11.48a7.61,7.61,0,0,1,3.16.62,6.16,6.16,0,0,1,2.32,1.84l-1.54,1.78a5.51,5.51,0,0,0-1.79-1.53,4.9,4.9,0,0,0-2.25-.49,3.93,3.93,0,0,0-1.39.22,1.74,1.74,0,0,0-.8.58,1.35,1.35,0,0,0-.25.8,1.16,1.16,0,0,0,.42.91,3.37,3.37,0,0,0,1.44.61l2.46.56a5.67,5.67,0,0,1,2.81,1.31,3.07,3.07,0,0,1,.85,2.25,3.69,3.69,0,0,1-.68,2.23,4.27,4.27,0,0,1-1.9,1.42,7.4,7.4,0,0,1-2.8.49,9.17,9.17,0,0,1-2.53-.33,7.51,7.51,0,0,1-2-.91,6.09,6.09,0,0,1-1.5-1.34l1.56-1.86a5.14,5.14,0,0,0,1.14,1.14,5.52,5.52,0,0,0,1.55.79,5.84,5.84,0,0,0,1.83.29,4.32,4.32,0,0,0,1.39-.19,1.8,1.8,0,0,0,.86-.54,1.31,1.31,0,0,0,.29-.85,1.26,1.26,0,0,0-.35-.89,2.51,2.51,0,0,0-1.29-.57l-2.68-.6a8.37,8.37,0,0,1-2-.73,3.3,3.3,0,0,1-1.26-1.16,3.15,3.15,0,0,1-.43-1.69,3.68,3.68,0,0,1,.64-2.12A4.42,4.42,0,0,1,61,12,7,7,0,0,1,63.91,11.48Z"/><path class="cls-2" d="M75.11,25.08a4.32,4.32,0,0,1-1.8-.36A2.77,2.77,0,0,1,72,23.57a4,4,0,0,1-.47-2.05V14.88h2.74v6a2.17,2.17,0,0,0,.48,1.61,1.94,1.94,0,0,0,1.38.45,2.33,2.33,0,0,0,.82-.15,2,2,0,0,0,.71-.47,2.18,2.18,0,0,0,.49-.83,3.63,3.63,0,0,0,.18-1.21V14.88h2.74v10H78.67l-.1-1.74a3.22,3.22,0,0,1-1.37,1.47A4.39,4.39,0,0,1,75.11,25.08Z"/><path class="cls-2" d="M84,24.88v-10h2.46l.1,1.8a3.4,3.4,0,0,1,1.37-1.5,3.83,3.83,0,0,1,1.93-.5,3.88,3.88,0,0,1,2,.5,3.11,3.11,0,0,1,1.31,1.48,3.22,3.22,0,0,1,.86-1.1,3.91,3.91,0,0,1,1.2-.66,4.42,4.42,0,0,1,1.34-.22,4.09,4.09,0,0,1,1.79.4,3.1,3.1,0,0,1,1.29,1.2,3.92,3.92,0,0,1,.48,2v6.56H97.33v-6a2.11,2.11,0,0,0-.48-1.56,1.7,1.7,0,0,0-1.24-.46,2.15,2.15,0,0,0-1.11.3,2,2,0,0,0-.8.89,3.38,3.38,0,0,0-.29,1.47v5.38H90.67v-6a2.07,2.07,0,0,0-.49-1.56,1.74,1.74,0,0,0-1.25-.46,2.08,2.08,0,0,0-1,.28,2.17,2.17,0,0,0-.84.88,3.28,3.28,0,0,0-.33,1.58v5.3Z"/><path class="cls-2" d="M108.59,18.5a1.67,1.67,0,0,0-1.78-1.82,2.28,2.28,0,0,0-1.3.38,2.25,2.25,0,0,0-.82,1.26l-2.34-.72a3.6,3.6,0,0,1,1.49-2.12,5.36,5.36,0,0,1,3.09-.8,6,6,0,0,1,2.3.41,3.4,3.4,0,0,1,1.53,1.23,3.59,3.59,0,0,1,.55,2.06v4.06c0,.51.24.76.72.76a1.91,1.91,0,0,0,.64-.1l-.16,1.7a3,3,0,0,1-1.3.26,3.15,3.15,0,0,1-1.26-.24,1.91,1.91,0,0,1-.88-.73,2.23,2.23,0,0,1-.32-1.23v-.08l.48-.08a2.23,2.23,0,0,1-.66,1.29,3.72,3.72,0,0,1-1.31.81,4.51,4.51,0,0,1-1.59.28,4.47,4.47,0,0,1-1.76-.31,2.47,2.47,0,0,1-1.14-.91,2.58,2.58,0,0,1-.4-1.48,2.46,2.46,0,0,1,.72-1.83,4,4,0,0,1,2.06-1l3.76-.76,0,1.7-2.4.48a3,3,0,0,0-1,.37.85.85,0,0,0-.35.75.86.86,0,0,0,.37.76,1.53,1.53,0,0,0,.89.26,3.23,3.23,0,0,0,.82-.1,2.14,2.14,0,0,0,.72-.32,1.48,1.48,0,0,0,.5-.6,2.13,2.13,0,0,0,.18-.92ZM107,10h2.64l-2,3.4h-2Z"/><path class="cls-2" d="M120.71,14.88v2h-7.78v-2Zm-3.2-3.06v9.8a1.33,1.33,0,0,0,.37,1.05,1.46,1.46,0,0,0,1,.33,2.39,2.39,0,0,0,.88-.15,2.47,2.47,0,0,0,.68-.41l.44,1.82a3.55,3.55,0,0,1-1.2.6,5.08,5.08,0,0,1-1.52.22,4.83,4.83,0,0,1-1.77-.3,2.48,2.48,0,0,1-1.2-1,3.14,3.14,0,0,1-.43-1.76V12.58Z"/><path class="cls-2" d="M127.21,25.08a5.72,5.72,0,0,1-2.75-.62,4.37,4.37,0,0,1-1.81-1.78,5.68,5.68,0,0,1-.64-2.8,5.71,5.71,0,0,1,.64-2.8,4.44,4.44,0,0,1,1.79-1.78,5.49,5.49,0,0,1,2.63-.62,5.08,5.08,0,0,1,2.58.61A4.11,4.11,0,0,1,131.27,17a5,5,0,0,1,.56,2.39c0,.27,0,.52,0,.76a5.59,5.59,0,0,1-.06.64h-8v-1.9h6.78l-1.32.48a3,3,0,0,0-.57-1.94,2,2,0,0,0-1.61-.68,2.34,2.34,0,0,0-1.31.36,2.21,2.21,0,0,0-.83,1.07,4.87,4.87,0,0,0-.28,1.79,4.22,4.22,0,0,0,.31,1.75,2.25,2.25,0,0,0,.88,1,3,3,0,0,0,2.79,0,2.32,2.32,0,0,0,.84-.94l2.18.84a3.48,3.48,0,0,1-1,1.34,4.28,4.28,0,0,1-1.54.85A6.21,6.21,0,0,1,127.21,25.08Z"/></g></g></svg>