<svg xmlns="http://www.w3.org/2000/svg" xmlns:xlink="http://www.w3.org/1999/xlink" viewBox="0 0 14.28 26.04"><defs><style>.cls-1{fill:none;}.cls-2{clip-path:url(#clip-path);}</style><clipPath id="clip-path"><rect class="cls-1" width="14.28" height="26.04"/></clipPath></defs><title>icon-phone</title><g id="Capa_2" data-name="Capa 2"><g id="Capa_1-2" data-name="Capa 1"><g class="cls-2"><path d="M12.6,0H1.68A1.68,1.68,0,0,0,0,1.68V24.36A1.68,1.68,0,0,0,1.68,26H12.6a1.68,1.68,0,0,0,1.68-1.68V1.68A1.68,1.68,0,0,0,12.6,0ZM9.11.84l-.24.84H5.37L5.16.84Zm4.33,23.52a.85.85,0,0,1-.84.84H1.68a.85.85,0,0,1-.84-.84V1.68A.85.85,0,0,1,1.68.84H4.29L4.63,2.2A.43.43,0,0,0,5,2.52H9.19a.41.41,0,0,0,.4-.31L10,.84H12.6a.85.85,0,0,1,.84.84Z"/></g><path d="M5,23.52H2.1a.42.42,0,1,0,0,.84H5a.42.42,0,1,0,0-.84Z"/><path d="M6.72,23.52H6.3a.42.42,0,1,0,0,.84h.42a.42.42,0,1,0,0-.84Z"/></g></g></svg>