<svg xmlns="http://www.w3.org/2000/svg" viewBox="0 0 20.53 15.4"><defs><style>.cls-1{fill:#333;}</style></defs><title>icon-mail</title><g id="Capa_2" data-name="Capa 2"><g id="Capa_1-2" data-name="Capa 1"><path class="cls-1" d="M1.71,14.54a.58.58,0,0,1-.19,0c1.18-1.12,4.63-4.39,6.8-6.25l.75.67a1.7,1.7,0,0,0,2.39,0l.75-.67c2.17,1.86,5.62,5.13,6.8,6.25a.58.58,0,0,1-.19,0ZM.9,13.91a.78.78,0,0,1,0-.22v-12a1,1,0,0,1,0-.24c1.14,1,4.56,4.18,6.79,6.2C5.47,9.57,2,12.82.9,13.91ZM18.82.86l.18,0c-1.48,1.36-6.4,5.85-8.11,7.4a.88.88,0,0,1-1.25,0C7.93,6.74,3,2.25,1.53.89a1.13,1.13,0,0,1,.18,0Zm-6,6.81c2.23-2,5.65-5.16,6.79-6.2a1,1,0,0,1,0,.24v12a.78.78,0,0,1,0,.22c-1.14-1.09-4.57-4.34-6.79-6.24Zm6-7.67H1.71A1.72,1.72,0,0,0,0,1.71v12A1.72,1.72,0,0,0,1.71,15.4H18.82a1.72,1.72,0,0,0,1.71-1.71v-12A1.72,1.72,0,0,0,18.82,0Z"/></g></g></svg>