<svg xmlns="http://www.w3.org/2000/svg" viewBox="0 0 33.3 33.3"><defs><style>.cls-1{fill:#ffbd28;}</style></defs><title>icon-instagram</title><g id="Capa_2" data-name="Capa 2"><g id="Capa_1-2" data-name="Capa 1"><path class="cls-1" d="M16.65,3c4.45,0,5,0,6.73.1a9.11,9.11,0,0,1,3.09.57,5,5,0,0,1,1.91,1.25,5,5,0,0,1,1.25,1.91,9.11,9.11,0,0,1,.57,3.09c.08,1.76.1,2.28.1,6.73s0,5-.1,6.73a9.11,9.11,0,0,1-.57,3.09,5.58,5.58,0,0,1-3.16,3.16,9.11,9.11,0,0,1-3.09.57c-1.76.08-2.28.1-6.73.1s-5,0-6.73-.1a9.11,9.11,0,0,1-3.09-.57,5,5,0,0,1-1.91-1.25,5,5,0,0,1-1.25-1.91,9.11,9.11,0,0,1-.57-3.09C3,21.62,3,21.1,3,16.65s0-5,.1-6.73a9.11,9.11,0,0,1,.57-3.09A5,5,0,0,1,4.92,4.92,5,5,0,0,1,6.83,3.67,9.11,9.11,0,0,1,9.92,3.1C11.68,3,12.2,3,16.65,3m0-3c-4.52,0-5.09,0-6.86.1a12.27,12.27,0,0,0-4,.77A8.51,8.51,0,0,0,.87,5.74a12.27,12.27,0,0,0-.77,4C0,11.56,0,12.13,0,16.65s0,5.09.1,6.86a12.27,12.27,0,0,0,.77,4,8.51,8.51,0,0,0,4.87,4.87,12.27,12.27,0,0,0,4,.77c1.77.08,2.34.1,6.86.1s5.09,0,6.86-.1a12.27,12.27,0,0,0,4-.77,8.51,8.51,0,0,0,4.87-4.87,12.27,12.27,0,0,0,.77-4c.08-1.77.1-2.34.1-6.86s0-5.09-.1-6.86a12.27,12.27,0,0,0-.77-4A8.51,8.51,0,0,0,27.56.87a12.27,12.27,0,0,0-4-.77C21.74,0,21.17,0,16.65,0Z"/><path class="cls-1" d="M16.65,8.1a8.55,8.55,0,1,0,8.55,8.55A8.55,8.55,0,0,0,16.65,8.1Zm0,14.1a5.55,5.55,0,1,1,5.55-5.55A5.54,5.54,0,0,1,16.65,22.2Z"/><path class="cls-1" d="M27.54,7.76a2,2,0,1,1-2-2A2,2,0,0,1,27.54,7.76Z"/></g></g></svg>