<svg xmlns="http://www.w3.org/2000/svg" viewBox="0 0 35.05 24.7"><defs><style>.cls-1{fill:#ffbd28;}</style></defs><title>icon-youtube</title><g id="Capa_2" data-name="Capa 2"><g id="Capa_1-2" data-name="Capa 1"><path class="cls-1" d="M34.32,3.86A4.38,4.38,0,0,0,31.22.74C28.49,0,17.53,0,17.53,0s-11,0-13.7.74A4.4,4.4,0,0,0,.73,3.86,46.33,46.33,0,0,0,0,12.35a46.33,46.33,0,0,0,.73,8.49A4.42,4.42,0,0,0,3.83,24c2.74.74,13.7.74,13.7.74s11,0,13.69-.74a4.4,4.4,0,0,0,3.1-3.12,46.33,46.33,0,0,0,.73-8.49A46.33,46.33,0,0,0,34.32,3.86ZM13.94,17.56V7.14l9.16,5.21Z"/></g></g></svg>