<svg xmlns="http://www.w3.org/2000/svg" viewBox="0 0 17.41 21.92"><defs><style>.cls-1{fill:#333;}</style></defs><title>icon-location</title><g id="Capa_2" data-name="Capa 2"><g id="Capa_1-2" data-name="Capa 1"><path class="cls-1" d="M8.7,0C3.9,0,0,3.53,0,7.88,0,13.34,7.94,21.4,8.28,21.74a.6.6,0,0,0,.42.18h0a.6.6,0,0,0,.43-.18c.34-.34,8.28-8.41,8.28-13.86C17.41,3.53,13.5,0,8.7,0Zm.18,20.42-.18.19-.17-.19C6.8,18.55,1.15,12.15,1.15,7.88,1.15,4.11,4.54,1,8.7,1s7.56,3.07,7.56,6.84C16.26,12.15,10.61,18.55,8.88,20.42Z"/><path class="cls-1" d="M8.7,12.49a4.22,4.22,0,1,1,4.23-4.22A4.23,4.23,0,0,1,8.7,12.49ZM8.7,5A3.31,3.31,0,1,0,12,8.27,3.31,3.31,0,0,0,8.7,5Z"/></g></g></svg>