<svg xmlns="http://www.w3.org/2000/svg" viewBox="0 0 32.34 32.49"><defs><style>.cls-1{fill:#ffbd28;fill-rule:evenodd;}</style></defs><title>icon-whatsapp</title><g id="Capa_2" data-name="Capa 2"><g id="Capa_1-2" data-name="Capa 1"><g id="WA_Logo" data-name="WA Logo"><path class="cls-1" d="M27.62,4.72A16.1,16.1,0,0,0,.13,16.1a16.17,16.17,0,0,0,2.15,8L0,32.49l8.53-2.24a16.14,16.14,0,0,0,7.7,2h0A16.1,16.1,0,0,0,27.62,4.72ZM16.24,29.49h0a13.33,13.33,0,0,1-6.81-1.86l-.49-.29L3.87,28.67l1.35-4.94-.32-.51a13.38,13.38,0,1,1,11.34,6.27Zm7.34-10c-.41-.2-2.38-1.17-2.75-1.31s-.64-.2-.91.2-1,1.31-1.27,1.58-.47.3-.87.1a11,11,0,0,1-3.24-2,12.41,12.41,0,0,1-2.24-2.78c-.23-.41,0-.62.18-.82s.4-.47.6-.71a2.87,2.87,0,0,0,.41-.67.74.74,0,0,0,0-.7c-.1-.21-.9-2.19-1.24-3s-.66-.68-.9-.69l-.77,0a1.47,1.47,0,0,0-1.08.51,4.48,4.48,0,0,0-1.41,3.35A7.78,7.78,0,0,0,9.7,16.68c.2.27,2.83,4.34,6.87,6.08,1,.41,1.71.66,2.29.85a5.68,5.68,0,0,0,2.54.16,4.15,4.15,0,0,0,2.71-1.92,3.34,3.34,0,0,0,.24-1.91C24.25,19.77,24,19.67,23.58,19.47Z"/></g></g></g></svg>