<svg xmlns="http://www.w3.org/2000/svg" viewBox="0 0 36.02 36.02"><defs><style>.cls-1{fill:#fff;}</style></defs><title>logo-footer</title><g id="Capa_2" data-name="Capa 2"><g id="Capa_1-2" data-name="Capa 1"><path class="cls-1" d="M11.84,24.19a14.94,14.94,0,0,0-.9-3.2l-1.25.51A12.94,12.94,0,0,1,10.44,24a14.54,14.54,0,0,0-3,.16,3.82,3.82,0,0,0-3,2.34,3.75,3.75,0,0,0-.29,1.64v0a2,2,0,0,0,0,.25,3.87,3.87,0,0,0,.27,1.05,3.82,3.82,0,0,0,.84,1.25,3.83,3.83,0,0,0,4.19.84h0a3.4,3.4,0,0,0,.54-.27A3.76,3.76,0,0,0,11.31,30l0,0a2.12,2.12,0,0,0,.11-.21c.05-.1.1-.19.14-.29a3.94,3.94,0,0,0,.21-.69v-.06h0a2.36,2.36,0,0,0,0-.28h0a.43.43,0,0,0,0-.05A13.9,13.9,0,0,0,12,25.59a12.43,12.43,0,0,1,2.61.77l.51-1.25A14.63,14.63,0,0,0,11.84,24.19Zm-1.32,4v.06a2.34,2.34,0,0,1,0,.26h0c0,.05,0,.1,0,.15s0,0,0,.08a1.8,1.8,0,0,1-.08.21,2.51,2.51,0,0,1-3.28,1.36A2.71,2.71,0,0,1,6.41,30a2.53,2.53,0,0,1-.72-1,2.46,2.46,0,0,1-.09-1.69l.09-.23a2.51,2.51,0,0,1,1.94-1.53,12.47,12.47,0,0,1,3-.12A12.51,12.51,0,0,1,10.52,28.21Z"/><path class="cls-1" d="M29.49,4.44a3.78,3.78,0,0,0-2.95,0,3.84,3.84,0,0,0-2.1,2.09,4.11,4.11,0,0,0-.21.68v.06h0a2.51,2.51,0,0,0,0,.27h0s0,0,0,0v0h0A13.9,13.9,0,0,0,24,10.44a14.08,14.08,0,0,1-2.55-.75L21,10.93a13.54,13.54,0,0,0,3.21.9,14.29,14.29,0,0,0,.91,3.25l0,0,1.25-.51,0,0A12.49,12.49,0,0,1,25.59,12a13.55,13.55,0,0,0,3-.15h0l.21,0h0a4.07,4.07,0,0,0,.7-.22,3.86,3.86,0,0,0,2.1-5A3.84,3.84,0,0,0,29.49,4.44ZM30.34,9a2.52,2.52,0,0,1-1.82,1.5l-.15,0h0a13.21,13.21,0,0,1-2.95.12,12.58,12.58,0,0,1,.1-2.81V7.75a2,2,0,0,0,0-.26v0c0-.14.08-.27.13-.4A2.52,2.52,0,0,1,30.34,9Z"/><path class="cls-1" d="M29.5,24.44a4.62,4.62,0,0,0-.6-.19l-.3-.06h-.12A14,14,0,0,0,25.59,24a12.64,12.64,0,0,1,.75-2.55L25.09,21a14,14,0,0,0-.9,3.21,13.61,13.61,0,0,0-3.24.92l.52,1.24A12.85,12.85,0,0,1,24,25.59a14.48,14.48,0,0,0,.16,3h0a3.87,3.87,0,0,0,2.34,3,3.87,3.87,0,0,0,3-7.15ZM30.34,29a2.52,2.52,0,0,1-4.81-.58h0a12.39,12.39,0,0,1-.12-3,12.61,12.61,0,0,1,2.88.1l.12,0,.59.17A2.52,2.52,0,0,1,30.34,29Z"/><path class="cls-1" d="M12,10.44a13.73,13.73,0,0,0-.15-3V7.39h0a4.31,4.31,0,0,0-.24-.87,3.87,3.87,0,0,0-7.14,0,3.86,3.86,0,0,0,2.09,5.05,3.64,3.64,0,0,0,.71.22h0l.23,0h.06L8,11.9l.14,0,.3,0h.14l.35,0h1.55a13.08,13.08,0,0,1-.78,2.61l1.25.51a14.55,14.55,0,0,0,.92-3.25h0a14.21,14.21,0,0,0,3.24-.91l-.52-1.25A13,13,0,0,1,12,10.44ZM10.49,7.61v0a13.32,13.32,0,0,1,.12,3H8.67l-.14,0H8.25l-.12,0-.16,0-.23,0H7.68l-.17,0a2.44,2.44,0,0,1-.46-.14A2.49,2.49,0,0,1,5.69,9a2.46,2.46,0,0,1,0-1.92A2.51,2.51,0,0,1,9,5.69,2.48,2.48,0,0,1,10.49,7.61Z"/><path class="cls-1" d="M30.68,14.44a4,4,0,0,0-.65.34h0l-.05,0h0l-.18.13h0a15,15,0,0,0-2.12,1.94,12.37,12.37,0,0,1-1.26-2.32l-1.25.51A14,14,0,0,0,26.75,18a14.19,14.19,0,0,0-1.66,3l1.25.51a12.74,12.74,0,0,1,1.29-2.38,13.49,13.49,0,0,0,2.21,2h0l.16.11h0a3.87,3.87,0,1,0,.66-6.79Zm2.44,5.89a2.5,2.5,0,0,1-2.34-.22L30.66,20h0a12.94,12.94,0,0,1-2.17-2,12.73,12.73,0,0,1,2-1.91h0L30.6,16l.14-.11h0a2.22,2.22,0,0,1,.43-.23,2.51,2.51,0,1,1,1.92,4.64Z"/><path class="cls-1" d="M9.29,18h0a13.57,13.57,0,0,0,1.63-2.9l-1.25-.51a12.88,12.88,0,0,1-1.27,2.33l0,0-.08-.09-.22-.23L8,16.45a2.5,2.5,0,0,1-.23-.23l-.09-.08-.31-.29-.08-.07L7,15.56l-.11-.1-.24-.19-.11-.09-.34-.25h0l-.06-.05h0L6,14.8H6a3.87,3.87,0,1,0-.66,6.79A3.28,3.28,0,0,0,6,21.23l.06,0h0a1.09,1.09,0,0,0,.17-.13A13.18,13.18,0,0,0,8.39,19.1a12.31,12.31,0,0,1,1.28,2.37l0,0L10.94,21l0,0A14,14,0,0,0,9.28,18ZM5.45,20h0l-.15.11h0l-.12.08-.08,0-.22.11a2.52,2.52,0,1,1,.42-4.43l.12.09h0l.32.24.1.09.22.17.11.1.2.17.12.1.19.19.11.09.22.23.06.06.28.3a.46.46,0,0,1,.07.07l.16.19A12.58,12.58,0,0,1,5.45,20Z"/><path class="cls-1" d="M16.53.29a3.87,3.87,0,0,0-2.09,5.05,3.13,3.13,0,0,0,.33.63l0,0h0l0,.06.12.16h0a13.66,13.66,0,0,0,2,2.14,12.53,12.53,0,0,1-2.36,1.28l.52,1.25A13.62,13.62,0,0,0,18,9.27a14,14,0,0,0,3,1.66l.51-1.24a13.11,13.11,0,0,1-2.38-1.3,14.09,14.09,0,0,0,2-2.22l.06-.07v0l0,0,.06-.1A3.87,3.87,0,0,0,16.53.29Zm3.6,4.93,0,0,0,0,0,.06L20,5.42h0a12.51,12.51,0,0,1-2,2.13,13.21,13.21,0,0,1-2-2.12L16,5.3l0-.06,0,0a1.94,1.94,0,0,1-.2-.38,2.51,2.51,0,1,1,4.44.39Z"/><path class="cls-1" d="M21,25.11A14.35,14.35,0,0,0,18,26.75a14.13,14.13,0,0,0-2.91-1.64l-.51,1.25a13.52,13.52,0,0,1,2.33,1.27,14.17,14.17,0,0,0-2,2.23l-.08.11a.21.21,0,0,0,0,.06,3.86,3.86,0,1,0,6.79.65,3,3,0,0,0-.32-.61l0-.06,0-.05v0l-.11-.15a13.92,13.92,0,0,0-2-2.16,13.87,13.87,0,0,1,2.37-1.28Zm-2,9.37a2.51,2.51,0,0,1-3.06-3.71.61.61,0,0,1,.07-.1h0a12.66,12.66,0,0,1,2-2.19,12.06,12.06,0,0,1,2,2.13,1.13,1.13,0,0,1,.1.13l0,.06a2.32,2.32,0,0,1,.22.41A2.51,2.51,0,0,1,19,34.48Z"/></g></g></svg>