<svg xmlns="http://www.w3.org/2000/svg" viewBox="0 0 190 38.43"><defs><style>.cls-1{fill:#ff2d46;}.cls-2{fill:#05d993;}.cls-3{fill:#862bfb;}.cls-4{fill:#ffbd28;}.cls-5{fill:#fff;}</style></defs><title>logo-header</title><g id="Capa_2" data-name="Capa 2"><g id="Capa_1-2" data-name="Capa 1"><path class="cls-1" d="M12.63,25.81a15.83,15.83,0,0,0-1-3.42l-1.33.55a13.79,13.79,0,0,1,.8,2.71,14.44,14.44,0,0,0-3.22.17,4.07,4.07,0,0,0-3.18,2.49,4.16,4.16,0,0,0-.32,1.76v0l0,.26a4,4,0,0,0,.29,1.12A4.07,4.07,0,0,0,7,33.7a4.14,4.14,0,0,0,3.13,0h0a4.48,4.48,0,0,0,.58-.29A4.2,4.2,0,0,0,12.07,32s0,0,0,0l.13-.23.15-.31a4.4,4.4,0,0,0,.22-.73v-.06h0c0-.1,0-.2,0-.3h0v0a.07.07,0,0,0,0-.05,15.09,15.09,0,0,0,.14-3,13.39,13.39,0,0,1,2.77.83l.55-1.34A15.38,15.38,0,0,0,12.63,25.81ZM11.22,30.1v.06a2.36,2.36,0,0,1,0,.28h0c0,.05,0,.11,0,.16l0,.08a2.09,2.09,0,0,1-.08.23,2.69,2.69,0,0,1-3.5,1.45A2.47,2.47,0,0,1,6.84,32,2.68,2.68,0,0,1,6,29.12a1.06,1.06,0,0,1,.09-.25,2.65,2.65,0,0,1,2.07-1.63,13.63,13.63,0,0,1,3.19-.13A13.61,13.61,0,0,1,11.22,30.1Z"/><path class="cls-1" d="M31.47,4.73A4.12,4.12,0,0,0,26.08,7a4.43,4.43,0,0,0-.23.73h0v0h0a2.7,2.7,0,0,0,0,.28v0h0a.13.13,0,0,1,0,.06h0a15,15,0,0,0-.13,3,14.41,14.41,0,0,1-2.72-.81l-.55,1.33a14.58,14.58,0,0,0,3.43,1,14.84,14.84,0,0,0,1,3.46l0,.05,1.33-.56,0,0a13.34,13.34,0,0,1-.81-2.75,15.38,15.38,0,0,0,3.18-.15h0l.22,0h0a3.93,3.93,0,0,0,.76-.23A4.12,4.12,0,0,0,33.7,7,4.15,4.15,0,0,0,31.47,4.73Zm.9,4.84a2.69,2.69,0,0,1-1.94,1.6l-.17,0h0a13.29,13.29,0,0,1-3.15.13,13.7,13.7,0,0,1,.1-3V8.27c0-.09,0-.18,0-.27V8a3.09,3.09,0,0,1,.14-.43,2.69,2.69,0,0,1,3.51-1.45,2.68,2.68,0,0,1,1.45,3.5Z"/><path class="cls-2" d="M31.47,26.08a3.83,3.83,0,0,0-.63-.2l-.33-.07h-.13a15.11,15.11,0,0,0-3.08-.14,13.49,13.49,0,0,1,.8-2.72l-1.33-.55a15.07,15.07,0,0,0-1,3.43,15,15,0,0,0-3.46,1l.55,1.33a13.37,13.37,0,0,1,2.75-.82,14.38,14.38,0,0,0,.17,3.21h0a4.24,4.24,0,0,0,.26,1,4.13,4.13,0,0,0,5.39,2.22,4.12,4.12,0,0,0,0-7.62Zm.9,4.84a2.69,2.69,0,0,1-3.5,1.45,2.65,2.65,0,0,1-1.63-2.08h0a13.54,13.54,0,0,1-.13-3.18,13.8,13.8,0,0,1,3.08.11l.12,0,.63.18A2.69,2.69,0,0,1,32.37,30.92Z"/><path class="cls-2" d="M12.78,11.14a14.29,14.29,0,0,0-.16-3.2V7.89h0A4.65,4.65,0,0,0,12.35,7a4,4,0,0,0-2.23-2.22,4.12,4.12,0,0,0-5.39,5.38A4.17,4.17,0,0,0,7,12.36a3.93,3.93,0,0,0,.76.23h0l.25,0h.06l.45.06.14,0,.32,0h.15l.37,0h.09l.45,0h1.12a14,14,0,0,1-.83,2.77l1.33.55a15.3,15.3,0,0,0,1-3.47h0a15.43,15.43,0,0,0,3.45-1l-.55-1.33A13.82,13.82,0,0,1,12.78,11.14Zm-1.59-3v.05a13.39,13.39,0,0,1,.13,3.16H9.25l-.15,0H9l-.15,0H8.68l-.18,0-.25,0H8.2a.58.58,0,0,1-.19,0A2.13,2.13,0,0,1,7.52,11,2.64,2.64,0,0,1,6.07,9.57a2.61,2.61,0,0,1,0-2.05,2.68,2.68,0,0,1,5.12.6Z"/><path class="cls-3" d="M32.73,15.41a4.52,4.52,0,0,0-.69.36h0l-.05,0h0l-.2.14h0l0,0a15.23,15.23,0,0,0-2.26,2.06,13.8,13.8,0,0,1-1.35-2.48l-1.33.56a14.88,14.88,0,0,0,1.74,3.09,14.87,14.87,0,0,0-1.77,3.16l1.33.55a14,14,0,0,1,1.38-2.55,15.47,15.47,0,0,0,2.36,2.14h0a1,1,0,0,0,.17.12h0a4.12,4.12,0,1,0,.7-7.24Zm2.61,6.28a2.64,2.64,0,0,1-2.5-.23l-.13-.09h0a14.23,14.23,0,0,1-2.31-2.14,14,14,0,0,1,2.17-2h0l.08-.06L32.8,17h0a2.88,2.88,0,0,1,.46-.24,2.68,2.68,0,1,1,2.06,5Z"/><path class="cls-3" d="M9.91,19.21h0a15.27,15.27,0,0,0,1.74-3.1l-1.33-.55A13.94,13.94,0,0,1,9,18.05a.08.08,0,0,1,0,0l-.09-.1-.23-.24-.11-.11-.25-.25-.08-.09-.34-.31-.08-.07-.28-.24-.12-.1-.26-.21L7,16.2l-.36-.28h0l-.06-.05,0,0-.09-.06h0a4.09,4.09,0,0,0-3.85-.37A4.12,4.12,0,1,0,5.7,23a3.72,3.72,0,0,0,.71-.38l.06,0h0l.18-.14A14.52,14.52,0,0,0,9,20.38a14,14,0,0,1,1.37,2.52l0,0,1.33-.55,0,0A15.48,15.48,0,0,0,9.9,19.22Zm-4.1,2.1h0l-.16.12h0l-.14.08-.09.05-.23.11A2.68,2.68,0,1,1,5.6,17l.13.09h0l.34.26.11.09.23.19.13.1.2.18.13.11.21.2.11.1.24.24a.46.46,0,0,0,.07.07c.1.1.19.21.29.32a.46.46,0,0,1,.07.07l.18.21A13.51,13.51,0,0,1,5.81,21.31Z"/><path class="cls-4" d="M17.64.31A4.13,4.13,0,0,0,15.41,5.7a3,3,0,0,0,.35.67l0,0h0a.21.21,0,0,1,0,.06l.13.18h0A15,15,0,0,0,18.05,9a14,14,0,0,1-2.52,1.37l.55,1.33A15.29,15.29,0,0,0,19.22,9.9a14.83,14.83,0,0,0,3.16,1.76l.55-1.33A13.39,13.39,0,0,1,20.38,9a14.5,14.5,0,0,0,2.14-2.36l.07-.08v0l0,0,.06-.1a4.12,4.12,0,0,0-5.05-6Zm3.83,5.26v0l0,0-.05.07-.06.08h0a14.11,14.11,0,0,1-2.1,2.27,13.79,13.79,0,0,1-2.11-2.27L17,5.65l0-.06,0,0a2.25,2.25,0,0,1-.21-.41,2.68,2.68,0,1,1,4.73.42Z"/><path class="cls-4" d="M22.35,26.79a14.57,14.57,0,0,0-3.13,1.75,15.13,15.13,0,0,0-3.11-1.75l-.55,1.34a13.33,13.33,0,0,1,2.49,1.35,14.73,14.73,0,0,0-2.15,2.38l-.08.12,0,.06a4.09,4.09,0,0,0-.37,3.85A4.12,4.12,0,0,0,23,32.73a4.48,4.48,0,0,0-.34-.65l0-.06,0-.06h0l-.13-.17a14.24,14.24,0,0,0-2.09-2.3,13.63,13.63,0,0,1,2.52-1.36Zm-2.11,10a2.68,2.68,0,0,1-3.26-4l.08-.11h0a13.19,13.19,0,0,1,2.15-2.33,13.63,13.63,0,0,1,2.1,2.26l.11.15,0,.06a3.55,3.55,0,0,1,.23.43A2.7,2.7,0,0,1,20.24,36.79Z"/><path class="cls-5" d="M48.53,12.39h2.19l2.74,8.52,2.82-8.56H58l2.82,8.56,2.74-8.52h2.12L61.68,24H59.93L57.1,15.7,54.28,24H52.54Z"/><path class="cls-5" d="M65.83,19.58v0A4.3,4.3,0,0,1,70.06,15c2.76,0,4.16,2.17,4.16,4.66,0,.18,0,.36,0,.56H67.81a2.43,2.43,0,0,0,2.5,2.2,3.16,3.16,0,0,0,2.35-1l1.16,1a4.52,4.52,0,0,1-8-2.87Zm6.42-.64a2.25,2.25,0,0,0-2.2-2.28,2.34,2.34,0,0,0-2.25,2.28Z"/><path class="cls-5" d="M83.61,12.31h1.87l5.06,11.57H88.41l-1.17-2.77H81.81l-1.19,2.77H78.56Zm2.89,7-2-4.6-2,4.6Z"/><path class="cls-5" d="M92,15.21h2v1.95a3.07,3.07,0,0,1,3.07-2.11v2.1h-.12c-1.74,0-3,1.13-3,3.43v3.3H92Z"/><path class="cls-5" d="M97.73,19.58v0A4.3,4.3,0,0,1,102,15c2.76,0,4.16,2.17,4.16,4.66,0,.18,0,.36,0,.56H99.71a2.43,2.43,0,0,0,2.5,2.2,3.16,3.16,0,0,0,2.35-1l1.16,1a4.52,4.52,0,0,1-8-2.87Zm6.42-.64a2.25,2.25,0,0,0-2.2-2.28,2.34,2.34,0,0,0-2.25,2.28Z"/><path class="cls-5" d="M113.84,14.26H110.2V12.39h9.32v1.87h-3.64v9.62h-2Z"/><path class="cls-5" d="M121.26,11.89h2v4.65A3.15,3.15,0,0,1,126,15c2,0,3.08,1.31,3.08,3.32v5.53h-2V19c0-1.34-.68-2.11-1.86-2.11a1.92,1.92,0,0,0-2,2.15v4.89h-2Z"/><path class="cls-5" d="M130.51,19.58v0A4.3,4.3,0,0,1,134.74,15c2.76,0,4.16,2.17,4.16,4.66,0,.18,0,.36,0,.56h-6.37a2.43,2.43,0,0,0,2.5,2.2,3.16,3.16,0,0,0,2.35-1l1.16,1a4.52,4.52,0,0,1-8-2.87Zm6.42-.64a2.26,2.26,0,0,0-2.2-2.28,2.34,2.34,0,0,0-2.25,2.28Z"/><path class="cls-5" d="M144.11,12.39h2V22h6.05v1.84h-8.07Z"/><path class="cls-5" d="M153.37,12h2.14v1.89h-2.14Zm.09,3.22h2v8.67h-2Z"/><path class="cls-5" d="M157.6,25.51l.74-1.5a5.61,5.61,0,0,0,3.08.92,2.42,2.42,0,0,0,2.74-2.66V21.6a3.63,3.63,0,0,1-3,1.59,3.9,3.9,0,0,1-3.94-4.06v0A3.91,3.91,0,0,1,161.11,15a3.73,3.73,0,0,1,3,1.48v-1.3h2v6.9A4.42,4.42,0,0,1,165,25.37a4.89,4.89,0,0,1-3.57,1.17A7.46,7.46,0,0,1,157.6,25.51Zm6.58-6.39v0a2.41,2.41,0,0,0-2.54-2.38,2.35,2.35,0,0,0-2.47,2.38v0a2.36,2.36,0,0,0,2.47,2.38A2.42,2.42,0,0,0,164.18,19.12Z"/><path class="cls-5" d="M167.93,11.89h2v4.65A3.15,3.15,0,0,1,172.62,15c1.95,0,3.09,1.31,3.09,3.32v5.53h-2V19c0-1.34-.67-2.11-1.85-2.11a1.93,1.93,0,0,0-2,2.15v4.89h-2Z"/><path class="cls-5" d="M177.81,21.48V16.92h-1.1V15.21h1.1V12.83h2v2.38h2.33v1.71H179.8v4.25a.94.94,0,0,0,1.06,1.08,2.59,2.59,0,0,0,1.23-.29v1.62a3.4,3.4,0,0,1-1.78.45A2.22,2.22,0,0,1,177.81,21.48Z"/><path class="cls-5" d="M183.1,22.75,184,21.4a4.87,4.87,0,0,0,2.84,1.07c.85,0,1.35-.36,1.35-.94v0c0-.67-.92-.9-1.94-1.22-1.28-.36-2.71-.88-2.71-2.54v0c0-1.65,1.36-2.65,3.09-2.65a6,6,0,0,1,3.18,1L189,17.46a5,5,0,0,0-2.44-.82c-.77,0-1.22.36-1.22.85v0c0,.64.94.9,2,1.23,1.26.39,2.69,1,2.69,2.53v0c0,1.82-1.41,2.72-3.22,2.72A6.13,6.13,0,0,1,183.1,22.75Z"/></g></g></svg>