<svg xmlns="http://www.w3.org/2000/svg" viewBox="0 0 190 190"><defs><style>.cls-1{fill:#ff2d46;}.cls-2{fill:#05d993;}.cls-3{fill:#862bfb;}.cls-4{fill:#ffbd28;}</style></defs><title>logo-section-nosotros</title><g id="Capa_2" data-name="Capa 2"><g id="Capa_1-2" data-name="Capa 1"><path class="cls-1" d="M62.42,127.59a74.75,74.75,0,0,0-4.73-16.9l-6.58,2.73a68.26,68.26,0,0,1,4,13.39,73.64,73.64,0,0,0-15.91.81,20.41,20.41,0,0,0-17.28,21v.11c0,.43.07.86.11,1.3a20.73,20.73,0,0,0,1.43,5.51A20.37,20.37,0,0,0,50,166.63l.09,0a20.58,20.58,0,0,0,9.64-8.25l.06-.11c.22-.36.43-.74.62-1.12s.5-1,.72-1.54A20.41,20.41,0,0,0,62.2,152l0-.09.05-.22v-.05a14.47,14.47,0,0,0,.22-1.47h0a.17.17,0,0,1,0-.07c0-.07,0-.17,0-.28A73.39,73.39,0,0,0,63.2,135,67.36,67.36,0,0,1,76.93,139l2.72-6.58A74.09,74.09,0,0,0,62.42,127.59Zm-6.94,21.22,0,.3c-.06.47-.13.91-.21,1.37v.05c-.06.27-.14.54-.21.8s-.07.27-.11.4c-.12.38-.25.75-.4,1.11a13.26,13.26,0,0,1-24.95-8.9c.13-.42.28-.83.45-1.24a13.2,13.2,0,0,1,10.26-8A65.81,65.81,0,0,1,56,134,67.2,67.2,0,0,1,55.48,148.81Z"/><path class="cls-1" d="M155.56,23.4a20.41,20.41,0,0,0-27.75,14.65l0,.06-.05.24v0c-.1.47-.16.94-.22,1.42,0,0,0,0,0,.06v0s0,0,0,.06,0,.16,0,.27h0a74.23,74.23,0,0,0-.67,14.82,67.86,67.86,0,0,1-13.44-4l-2.73,6.58a74.13,74.13,0,0,0,17,4.75,75.1,75.1,0,0,0,4.81,17.1l.09.21L139.06,77l-.08-.21a68.62,68.62,0,0,1-4-13.59,73.83,73.83,0,0,0,15.73-.78h0l1.08-.19h.06a20.38,20.38,0,0,0,3.73-38.81ZM160,47.31a13.25,13.25,0,0,1-9.59,7.92c-.27.06-.54.1-.81.14h0A66.58,66.58,0,0,1,134,56a67.93,67.93,0,0,1,.51-14.8l0-.3c.06-.46.13-.91.2-1.36l0-.22a14.18,14.18,0,0,1,.69-2.15A13.26,13.26,0,0,1,160,47.31Z"/><path class="cls-2" d="M155.57,128.92a21,21,0,0,0-3.12-1l-1.61-.32-.33,0h-.09l-.22,0A74.71,74.71,0,0,0,135,126.8a67.17,67.17,0,0,1,4-13.44l-6.58-2.73a75.16,75.16,0,0,0-4.75,17,75.52,75.52,0,0,0-17.09,4.83l2.72,6.58a68.72,68.72,0,0,1,13.59-4.05,73,73,0,0,0,.81,15.91h0a20.88,20.88,0,0,0,1.33,4.75,20.39,20.39,0,1,0,26.62-26.7ZM160,152.83a13.26,13.26,0,0,1-25.36-3.07v0A66.34,66.34,0,0,1,134,134a67.82,67.82,0,0,1,15.2.57l.6.1,3.11.88A13.28,13.28,0,0,1,160,152.83Z"/><path class="cls-2" d="M63.2,55.05a74.22,74.22,0,0,0-.79-15.81l0-.25v0a20.6,20.6,0,0,0-1.3-4.58A20.39,20.39,0,1,0,34.44,61.08a19.75,19.75,0,0,0,3.75,1.15h.06s0,0,0,0c.38.08.8.15,1.25.21l.24,0h.05c.74.11,1.46.21,2.2.29l.7.08,1.6.16.74.07,1.83.12.43,0c.75,0,1.49.06,2.24.07h3q.86,0,1.71-.06c.18,0,.38,0,.56,0h.2A67.27,67.27,0,0,1,51,76.93l6.58,2.72A75.2,75.2,0,0,0,62.4,62.48h.05v0a75.58,75.58,0,0,0,17.05-4.81L76.78,51A68.11,68.11,0,0,1,63.2,55.05Zm-7.87-14.9.05.26A66.17,66.17,0,0,1,56,56h-.09l-1.12.07-.56,0-.8,0-1.31,0H50l-.7,0h-.53l-.88,0-.77,0-.62,0-.77,0L45,55.93l-.75-.07-.76-.08-.59-.06L42,55.6l-1.22-.17-.06,0-.23,0-.93-.15A13.27,13.27,0,1,1,55.33,40.15Z"/><path class="cls-3" d="M161.81,76.16A20.21,20.21,0,0,0,158.4,78h0s0,0,0,0l0,0,0,0-.26.18h0c-.32.22-.64.45-1,.71l0,0-.12.09a74.29,74.29,0,0,0-11.19,10.22A68.25,68.25,0,0,1,139.06,77l-6.58,2.73A74.46,74.46,0,0,0,141.08,95a74.66,74.66,0,0,0-8.74,15.62l6.58,2.73a67.51,67.51,0,0,1,6.82-12.59,74,74,0,0,0,11.66,10.54s0,0,0,0c.27.2.55.4.85.6l0,0,0,0a20.39,20.39,0,1,0,3.45-35.83Zm12.88,31.08a13.23,13.23,0,0,1-12.37-1.17l-.62-.43-.07-.06A67.3,67.3,0,0,1,150.17,95a67.57,67.57,0,0,1,10.76-10.08l.09,0,.36-.29c.25-.19.52-.38.78-.56l.09-.07,0,0a13.26,13.26,0,1,1,12.42,23.29Z"/><path class="cls-3" d="M49,95l0,0a74.62,74.62,0,0,0,8.6-15.3L51,76.93a67.29,67.29,0,0,1-6.7,12.3l-.17-.18-.45-.49c-.38-.42-.76-.82-1.14-1.23L42,86.78c-.4-.41-.81-.81-1.22-1.21l-.43-.43c-.56-.53-1.11-1-1.68-1.56l-.38-.33-1.37-1.19-.59-.49-1.28-1c-.19-.14-.38-.3-.56-.45l-1.81-1.36,0,0h0l-.31-.23-.14-.09-.44-.31,0,0,0,0a20.36,20.36,0,1,0,0,34l.31-.22.08,0c.3-.23.61-.45.9-.68a73,73,0,0,0,11.3-10.29A67.86,67.86,0,0,1,51,113.22l.09.2,6.58-2.73-.09-.2A74.79,74.79,0,0,0,49,95ZM28.72,105.33l-.08.06c-.25.2-.52.39-.79.58l0,0,0,0-.07,0h0c-.22.15-.44.27-.67.4l-.42.26c-.38.19-.76.38-1.16.54a13.26,13.26,0,1,1,2.22-23.33c.21.14.42.28.62.43l.08.06.05,0c.56.41,1.12.83,1.67,1.26l.55.45,1.14.91.62.53,1,.89.62.55c.34.31.68.64,1,1l.55.52c.4.39.8.78,1.18,1.18.12.11.24.22.35.34.49.51,1,1,1.46,1.57.12.12.23.26.35.38l.87,1A66,66,0,0,1,28.72,105.33Z"/><path class="cls-4" d="M87.19,1.55a20.42,20.42,0,0,0-11,26.64,20,20,0,0,0,1.75,3.31,1.64,1.64,0,0,0,.14.22s0,0,0,0l.19.29.63.86h0s0,0,0,0a74.1,74.1,0,0,0,10.31,11.3A68.9,68.9,0,0,1,76.78,51l2.73,6.59A75.45,75.45,0,0,0,95,48.92a74,74,0,0,0,15.62,8.74l2.73-6.58a67.55,67.55,0,0,1-12.59-6.82,74.45,74.45,0,0,0,10.58-11.7l.31-.37,0-.11.16-.23c.12-.17.22-.33.33-.51a20.39,20.39,0,0,0-25-29.79Zm19,26-.07.11c0,.05-.07.1-.12.19s-.15.22-.24.33l-.29.38,0,0A66.32,66.32,0,0,1,95,39.83a66.6,66.6,0,0,1-10.4-11.2c-.18-.22-.34-.45-.51-.68l-.18-.34-.12-.11a13.05,13.05,0,0,1-1.06-2,13.26,13.26,0,1,1,23.42,2.09Z"/><path class="cls-4" d="M110.5,132.41A75.86,75.86,0,0,0,95,141.09a74.05,74.05,0,0,0-15.34-8.63L76.93,139a67.7,67.7,0,0,1,12.31,6.7,74.56,74.56,0,0,0-10.62,11.75c-.15.2-.29.4-.42.61a2.22,2.22,0,0,0-.19.27,20.38,20.38,0,1,0,35.83,3.44,20.65,20.65,0,0,0-1.68-3.23l-.21-.31a2.22,2.22,0,0,0-.19-.27.43.43,0,0,0,0-.07l-.62-.83a74.28,74.28,0,0,0-10.34-11.37A68.72,68.72,0,0,1,113.22,139Zm-10.42,49.45A13.26,13.26,0,0,1,84,162.29a6.42,6.42,0,0,1,.38-.53l0-.07A67.13,67.13,0,0,1,95,150.17a67,67,0,0,1,10.4,11.2l.53.73.2.28a13.88,13.88,0,0,1,1.13,2.16A13.26,13.26,0,0,1,100.08,181.86Z"/></g></g></svg>