<svg xmlns="http://www.w3.org/2000/svg" viewBox="0 0 208.62 153.47"><defs><style>.cls-1{fill:#ff2d46;}.cls-2{fill:#05d993;}.cls-3{fill:#862bfb;}.cls-4{fill:#ffbd28;}.cls-5{fill:#333;}</style></defs><title>logo-contacto</title><g id="Capa_2" data-name="Capa 2"><g id="Capa_1-2" data-name="Capa 1"><path class="cls-1" d="M84.1,79.17a46.74,46.74,0,0,0-2.94-10.48l-4.09,1.69a42.13,42.13,0,0,1,2.46,8.31,45.91,45.91,0,0,0-9.87.5,12.67,12.67,0,0,0-10.73,13v.07c0,.27,0,.53.07.8a12.64,12.64,0,0,0,7.74,10.27,12.57,12.57,0,0,0,9.62,0l0,0a12.57,12.57,0,0,0,6-5.12.16.16,0,0,0,0-.07,7.69,7.69,0,0,0,.39-.69,10.45,10.45,0,0,0,.44-1,12.14,12.14,0,0,0,.7-2.24v-.05l0-.14v0a9.07,9.07,0,0,0,.14-.91h0s0,0,0,0a1.28,1.28,0,0,1,0-.17,45.69,45.69,0,0,0,.41-9.2,41.8,41.8,0,0,1,8.52,2.54l1.69-4.09A46.45,46.45,0,0,0,84.1,79.17ZM79.79,92.34l0,.19c0,.29-.08.56-.13.85v0c0,.17-.09.33-.13.5a1.82,1.82,0,0,0-.07.25c-.07.23-.16.46-.25.68A8.25,8.25,0,0,1,68.43,99.3a8.4,8.4,0,0,1-2.08-1.25A8.29,8.29,0,0,1,64,94.84a8.19,8.19,0,0,1-.27-5.52,7.08,7.08,0,0,1,.28-.77,8.18,8.18,0,0,1,6.37-5,41.4,41.4,0,0,1,9.76-.4A41.51,41.51,0,0,1,79.79,92.34Z"/><path class="cls-1" d="M141.89,14.52a12.65,12.65,0,0,0-16.53,6.85,13.2,13.2,0,0,0-.69,2.24v0l0,.15v0c-.06.29-.1.58-.14.88v0a0,0,0,0,0,0,0v0l0,.17h0a45.56,45.56,0,0,0-.41,9.19,42.38,42.38,0,0,1-8.35-2.46L114,35.78a46.59,46.59,0,0,0,10.52,2.95,46.59,46.59,0,0,0,3,10.61l0,.13,4.08-1.7-.05-.12a41.92,41.92,0,0,1-2.5-8.44,45.5,45.5,0,0,0,9.76-.48h0l.67-.12h0a12.12,12.12,0,0,0,2.31-.71,12.65,12.65,0,0,0,0-23.37Zm2.76,14.84a8.22,8.22,0,0,1-6,4.91l-.5.09h0a41.73,41.73,0,0,1-9.67.38,41.51,41.51,0,0,1,.32-9.18l0-.19c0-.28.09-.56.13-.84l0-.14a9,9,0,0,1,.43-1.33,8.23,8.23,0,1,1,15.2,6.3Z"/><path class="cls-2" d="M141.9,80a12.16,12.16,0,0,0-1.94-.62l-1-.2-.2,0h-.06l-.13,0a46.07,46.07,0,0,0-9.46-.45,41.62,41.62,0,0,1,2.46-8.34l-4.09-1.69a46.05,46.05,0,0,0-2.94,10.52,46.84,46.84,0,0,0-10.61,3l1.69,4.08a41.66,41.66,0,0,1,8.43-2.51,45.91,45.91,0,0,0,.5,9.87h0a12.65,12.65,0,0,0,7.67,9.75A12.65,12.65,0,0,0,141.9,80Zm2.76,14.84a8.23,8.23,0,0,1-15.74-1.91h0a41.48,41.48,0,0,1-.4-9.77,42.59,42.59,0,0,1,9.44.35l.37.06,1.93.55A8.25,8.25,0,0,1,144.66,94.84Z"/><path class="cls-2" d="M84.58,34.16a45.48,45.48,0,0,0-.49-9.81l0-.16h0a12.35,12.35,0,0,0-.81-2.84,12.48,12.48,0,0,0-6.84-6.81,12.65,12.65,0,0,0-16.52,6.84A12.65,12.65,0,0,0,66.73,37.9a11.77,11.77,0,0,0,2.33.71h0c.24.05.5.1.77.13l.16,0h0c.45.07.9.13,1.36.18l.44,0,1,.1.46,0,1.13.07.27,0c.46,0,.93,0,1.39,0H78l1.06,0h.47A41.68,41.68,0,0,1,77,47.73l4.08,1.7a46.69,46.69,0,0,0,3-10.66h0v0a46.69,46.69,0,0,0,10.58-3L93,31.66A43,43,0,0,1,84.58,34.16ZM79.7,24.91l0,.16a41.82,41.82,0,0,1,.38,9.68h-.06l-.69,0-.35,0-.49,0-.82,0H76.4l-.44,0h-.33l-.55,0-.47,0-.39,0-.47,0-.46,0-.47-.05-.47,0-.37,0-.54-.07-.76-.11h0l-.14,0-.58-.09a8.44,8.44,0,0,1-1.51-.46A8.23,8.23,0,1,1,79.7,24.91Z"/><path class="cls-3" d="M145.77,47.26a13.83,13.83,0,0,0-2.12,1.12h-.05a.91.91,0,0,1-.16.11h0c-.2.14-.4.28-.6.44h0l-.08.06a45.87,45.87,0,0,0-6.94,6.34,41.79,41.79,0,0,1-4.15-7.61l-4.08,1.7A46.29,46.29,0,0,0,132.91,59a46.15,46.15,0,0,0-5.43,9.69l4.09,1.69a41.82,41.82,0,0,1,4.23-7.81A46.35,46.35,0,0,0,143,69.07l0,0,.53.38h0l0,0a12.65,12.65,0,1,0,2.14-22.24Zm8,19.29a8.2,8.2,0,0,1-7.67-.73l-.39-.27,0,0A41.85,41.85,0,0,1,138.55,59a42,42,0,0,1,6.67-6.25l.06,0,.22-.18c.16-.12.32-.24.49-.35l0,0h0a9.05,9.05,0,0,1,1.41-.75,8.23,8.23,0,0,1,6.3,15.21Z"/><path class="cls-3" d="M75.76,58.94l0,0a46.69,46.69,0,0,0,5.33-9.49L77,47.73a41.59,41.59,0,0,1-4.16,7.64l-.1-.11L72.45,55l-.71-.76-.33-.34-.76-.75-.27-.27c-.35-.32-.69-.65-1-1l-.23-.21-.86-.74-.36-.31-.8-.64-.35-.28-1.12-.84a0,0,0,0,0,0,0h0l-.19-.14-.09-.06L65,48.43h0a12.63,12.63,0,1,0,0,21.08l.19-.13.05,0c.19-.14.38-.27.56-.42a45.1,45.1,0,0,0,7-6.38A41.78,41.78,0,0,1,77,70.25l0,.13,4.09-1.69,0-.13A47.16,47.16,0,0,0,75.74,59ZM63.18,65.36l0,0-.5.36h0l0,0,0,0h0c-.14.09-.28.16-.42.24a2.26,2.26,0,0,1-.26.16,7.94,7.94,0,0,1-.72.34,8.23,8.23,0,1,1,1.38-14.48c.13.09.26.17.38.27l0,0,0,0,1,.78.34.28.71.57.38.32.64.56c.13.11.26.22.38.34s.43.39.64.59l.34.33.73.73.22.21c.31.32.61.64.91,1l.21.24c.19.2.36.41.55.62A41.13,41.13,0,0,1,63.18,65.36Z"/><path class="cls-4" d="M99.47,1A12.67,12.67,0,0,0,93.7,19.55l.1.14v0l.12.18.39.53h0l0,0a46.21,46.21,0,0,0,6.39,7A43.4,43.4,0,0,1,93,31.66l1.69,4.09a47,47,0,0,0,9.62-5.39A46.16,46.16,0,0,0,114,35.78l1.69-4.08a43.07,43.07,0,0,1-7.81-4.23,46.21,46.21,0,0,0,6.57-7.26l.19-.24,0-.06.11-.15.2-.31A12.66,12.66,0,0,0,99.47,1Zm11.77,16.13,0,.07-.07.12-.15.21-.18.23,0,0a41.4,41.4,0,0,1-6.45,7,41.74,41.74,0,0,1-6.46-6.95c-.11-.14-.21-.28-.31-.43l-.12-.21-.07-.07a8.23,8.23,0,1,1,13.88,0Z"/><path class="cls-4" d="M113.93,82.17a46.28,46.28,0,0,0-9.62,5.38,46.51,46.51,0,0,0-9.52-5.36L93.1,86.28a41.65,41.65,0,0,1,7.64,4.16,45.2,45.2,0,0,0-6.59,7.29l-.27.37c0,.06-.08.12-.11.17A12.65,12.65,0,1,0,116,100.41a12.36,12.36,0,0,0-1-2l-.13-.19-.12-.17s0,0,0,0l-.38-.52a45.59,45.59,0,0,0-6.42-7,42.81,42.81,0,0,1,7.74-4.18Zm-6.46,30.68a8.22,8.22,0,0,1-10-12.14,2.75,2.75,0,0,1,.23-.33l0,0a42.31,42.31,0,0,1,6.6-7.16,41.68,41.68,0,0,1,6.45,6.95l.34.46.12.17a9,9,0,0,1,.7,1.34A8.23,8.23,0,0,1,107.47,112.85Z"/><path class="cls-5" d="M0,132.6H3.22l4,12.57,4.17-12.62H14l4.16,12.62,4-12.57h3.13l-5.89,17.07H16.8l-4.16-12.18L8.47,149.67H5.91Z"/><path class="cls-5" d="M25.51,143.21v-.05a6.34,6.34,0,0,1,6.24-6.66c4.07,0,6.13,3.2,6.13,6.88,0,.26,0,.53-.05.82H28.44a3.56,3.56,0,0,0,3.68,3.24,4.66,4.66,0,0,0,3.46-1.52l1.72,1.52a6.44,6.44,0,0,1-5.23,2.4A6.37,6.37,0,0,1,25.51,143.21Zm9.46-1c-.19-1.88-1.3-3.36-3.24-3.36-1.79,0-3.05,1.38-3.32,3.36Z"/><path class="cls-5" d="M51.73,132.48h2.76L62,149.55H58.8l-1.72-4.09h-8l-1.74,4.09h-3ZM56,142.82,53.07,136l-2.91,6.78Z"/><path class="cls-5" d="M64.1,136.77H67v2.88a4.53,4.53,0,0,1,4.53-3.12v3.09h-.17c-2.57,0-4.36,1.68-4.36,5.06v4.87H64.1Z"/><path class="cls-5" d="M72.55,143.21v-.05a6.34,6.34,0,0,1,6.25-6.66c4.06,0,6.12,3.2,6.12,6.88a8,8,0,0,1,0,.82H75.48a3.56,3.56,0,0,0,3.68,3.24,4.64,4.64,0,0,0,3.46-1.52l1.72,1.52a6.44,6.44,0,0,1-5.23,2.4A6.38,6.38,0,0,1,72.55,143.21Zm9.47-1c-.2-1.88-1.31-3.36-3.25-3.36-1.79,0-3,1.38-3.32,3.36Z"/><path class="cls-5" d="M96.31,135.36H90.94V132.6h13.75v2.76H99.31v14.19h-3Z"/><path class="cls-5" d="M107.26,131.88h2.93v6.85a4.62,4.62,0,0,1,4-2.23c2.88,0,4.55,1.94,4.55,4.89v8.16H115.8v-7.26c0-2-1-3.13-2.73-3.13s-2.88,1.19-2.88,3.18v7.21h-2.93Z"/><path class="cls-5" d="M120.89,143.21v-.05a6.34,6.34,0,0,1,6.25-6.66c4.06,0,6.12,3.2,6.12,6.88a8,8,0,0,1,0,.82h-9.39a3.56,3.56,0,0,0,3.68,3.24,4.64,4.64,0,0,0,3.46-1.52l1.72,1.52a6.44,6.44,0,0,1-5.23,2.4A6.38,6.38,0,0,1,120.89,143.21Zm9.47-1c-.2-1.88-1.31-3.36-3.25-3.36-1.79,0-3,1.38-3.32,3.36Z"/><path class="cls-5" d="M141,132.6h3v14.24h8.91v2.71H141Z"/><path class="cls-5" d="M154.61,132h3.15v2.79h-3.15Zm.12,4.75h2.93v12.78h-2.93Z"/><path class="cls-5" d="M160.84,152l1.09-2.21a8.36,8.36,0,0,0,4.55,1.36c2.62,0,4.05-1.36,4.05-3.92v-1a5.36,5.36,0,0,1-4.51,2.34,5.74,5.74,0,0,1-5.81-6v0a5.77,5.77,0,0,1,5.81-6,5.5,5.5,0,0,1,4.48,2.18v-1.91h2.93v10.17a6.54,6.54,0,0,1-1.62,4.81c-1.16,1.17-3,1.72-5.26,1.72A11,11,0,0,1,160.84,152Zm9.71-9.42v-.05A3.57,3.57,0,0,0,166.8,139a3.46,3.46,0,0,0-3.64,3.51v.05A3.49,3.49,0,0,0,166.8,146,3.57,3.57,0,0,0,170.55,142.53Z"/><path class="cls-5" d="M176.07,131.88H179v6.85a4.63,4.63,0,0,1,4-2.23c2.88,0,4.55,1.94,4.55,4.89v8.16h-2.93v-7.26c0-2-1-3.13-2.74-3.13s-2.88,1.19-2.88,3.18v7.21h-2.93Z"/><path class="cls-5" d="M190.65,146v-6.73H189v-2.52h1.63v-3.51h2.93v3.51H197v2.52h-3.43v6.27a1.39,1.39,0,0,0,1.57,1.59,4,4,0,0,0,1.82-.43v2.4a5.1,5.1,0,0,1-2.64.65C192.17,149.77,190.65,148.82,190.65,146Z"/><path class="cls-5" d="M198.46,147.88l1.3-2a7.24,7.24,0,0,0,4.19,1.57c1.26,0,2-.53,2-1.38V146c0-1-1.36-1.33-2.86-1.79-1.89-.53-4-1.31-4-3.75v-.05c0-2.42,2-3.9,4.56-3.9a8.89,8.89,0,0,1,4.69,1.45l-1.16,2.08a7.4,7.4,0,0,0-3.61-1.21c-1.13,0-1.79.54-1.79,1.26v.05c0,.95,1.38,1.33,2.88,1.82,1.87.58,4,1.43,4,3.73v0c0,2.69-2.08,4-4.74,4A8.93,8.93,0,0,1,198.46,147.88Z"/></g></g></svg>